<?xml version="1.0" encoding="UTF-8" standalone="no"?><!DOCTYPE svg PUBLIC "-//W3C//DTD SVG 1.1//EN" "http://www.w3.org/Graphics/SVG/1.1/DTD/svg11.dtd"><svg width="100%" height="100%" viewBox="0 0 500 500" version="1.1" xmlns="http://www.w3.org/2000/svg" xmlns:xlink="http://www.w3.org/1999/xlink" xml:space="preserve" xmlns:serif="http://www.serif.com/" style="fill-rule:evenodd;clip-rule:evenodd;stroke-linecap:round;stroke-linejoin:round;stroke-miterlimit:1.5;"><rect id="Logo" x="0" y="0" width="500" height="500" style="fill:none;"/><g id="snake"><path id="tongue" d="M374.109,107.798l88.689,0l-56.562,0c35.135,-3.668 55.141,-22.466 56.562,-59.85" style="fill:none;stroke:#eb0003;stroke-width:9.97px;"/><path id="body-behind-fill" serif:id="body behind fill" d="M356.136,335.187c-12.555,-5.139 -28.053,-8.554 -47.705,-8.369l-81.861,-0.077c-77.672,2.714 -123.635,14.511 -123.635,40.958c-0,33.038 54.277,57.454 132.301,57.454c32.117,0 124.759,0.29 164.207,0.29c40.792,-0 61.483,24.074 63.355,64.822l-227.621,0.687c-122.452,-3.56 -188.958,-42.087 -197.843,-116.627c-3.771,-71.4 73.973,-113.406 164.361,-113.406c38.566,0 80.496,0.099 112.093,0.099c76.31,-0 118.652,37.081 118.652,74.169" style="fill:#2dcd47;"/><path id="shade-3" serif:id="shade 3" d="M101.122,367.201c0,0 3.9,-25.554 17.327,-36.365c19.68,-15.847 49.672,-20.156 83.022,-23.358c38.284,-3.677 77.356,-2.812 103.287,-1.145c8.292,0.533 27.432,1.197 39.237,8.962c9.853,6.482 14.2,20.584 14.2,20.584c-0,0 -22.018,-8.9 -40.325,-8.9c-22.771,-0 -73.024,-0.238 -91.3,-0.238c-66.095,-0 -123.785,14.274 -125.448,40.46Z" style="fill:#009718;"/><path id="shade-2" serif:id="shade 2" d="M462.798,490.265c-0,0 -9.033,-19.03 -16.607,-19.03c-37.717,0 -194.985,0.369 -232.702,0.369c-21.989,0 -61.127,-3.596 -87.112,-10.565c-22.793,-6.113 -32.054,-9.403 -64.285,-27.822c31.286,31.654 83.818,55.335 150.431,56.633c41.329,0.806 250.275,0.415 250.275,0.415Z" style="fill:#009718;"/><path id="body-behind-outline" serif:id="body behind outline" d="M356.136,334.703c-12.555,-5.139 -28.053,-8.07 -47.705,-7.885l-81.861,-0.077c-77.672,2.714 -123.635,14.511 -123.635,40.958c-0,33.038 54.277,57.454 132.301,57.454c32.117,0 124.759,0.29 164.207,0.29c40.792,-0 61.483,24.074 63.355,64.822l-227.621,0.687c-122.452,-3.56 -188.958,-42.087 -197.843,-116.627c-3.771,-71.4 73.973,-113.406 164.361,-113.406c38.566,0 80.496,0.099 112.093,0.099c76.31,-0 118.652,36.597 118.652,73.685" style="fill:none;stroke:#000;stroke-width:3px;"/><path id="body-in-front-fill" serif:id="body in front fill" d="M432.44,334.703c-0,43.742 -62.351,72.981 -106.093,72.981c-20.653,0 -59.728,0.806 -87.66,0.806c-74.893,-0 -119.254,-63.488 -119.254,-133.364c-3.183,-69.804 1.21,-97.49 15.283,-132.887c30.919,-77.764 94.517,-88.665 127.93,-91.757c43.843,-4.057 120.299,-0.229 120.299,-0.229c0.811,61.869 -20.666,95.45 -65.992,98.76l-110.905,-0c-11.812,16.944 -18.955,36.223 -20.121,58.491l-0.731,53.186c-3.406,51.185 14.388,82.539 65.993,82.262l56.466,-0.112c17.947,-0.033 34.083,-2.781 48.481,-8.137" style="fill:#2dcd47;"/><path d="M204.284,149.307c-0,0 12.102,-19.093 38.672,-19.093c29.365,-0 55.325,-0.006 84.69,-0.006c24.487,0 43.764,-15.807 43.764,-15.807c-5.922,15.386 -27.077,34.612 -57.881,34.612c-28.158,-0 -109.245,0.294 -109.245,0.294Z" style="fill:#009718;"/><path id="shade-1" serif:id="shade 1" d="M426.397,357.681c-16.684,30.701 -64.509,50.003 -100.05,50.003c-20.653,0 -59.728,0.806 -87.66,0.806c-42.127,-0 -74.594,-20.088 -94.939,-50.101c-0,-0 43.782,25.314 68.219,28.225c37.076,4.416 118.501,3.094 154.24,-1.728c21.82,-2.944 60.19,-27.205 60.19,-27.205Z" style="fill:#009718;"/><path id="body-in-front-outline" serif:id="body in front outline" d="M432.44,334.703c-0,43.742 -62.351,72.981 -106.093,72.981c-20.653,0 -59.728,0.806 -87.66,0.806c-74.893,-0 -119.254,-63.488 -119.254,-133.364c-3.183,-69.804 1.21,-97.49 15.283,-132.887c30.919,-77.764 94.517,-88.665 127.93,-91.757c43.843,-4.057 120.299,-0.229 120.299,-0.229c0.811,61.869 -20.666,95.45 -65.992,98.76l-110.905,-0c-11.812,16.944 -18.955,36.223 -20.121,58.491l-0.731,53.186c-3.406,51.185 14.388,82.539 65.993,82.262l56.466,-0.112c17.947,-0.033 34.083,-2.781 48.481,-8.137" style="fill:none;stroke:#000;stroke-width:3px;"/><circle cx="322.723" cy="80.137" r="8.983"/><g id="hat"><path d="M326.224,45.405c-0,-0 -18.394,-26.438 -32.969,-32.147c-14.575,-5.71 -36.82,-6.189 -52.037,2.168c-23.549,12.933 -61.553,45.316 -87.45,75.429c-11.095,12.902 -28.187,45.629 -28.187,45.629c9.931,-0.241 18.972,1.301 26.011,6.845c8.125,6.573 17.901,8.745 28.917,7.609c-0,0 25.599,-40.251 40.834,-55.289c21.467,-21.189 50.953,-34.558 50.953,-34.558c21.956,-10.66 37.754,-17.555 53.928,-15.686Z" style="fill:#fff;stroke:#000;stroke-width:3px;"/><path d="M266.921,84.981c15.636,-20.745 32.434,-31.266 49.033,-37.557l31.552,-0.001l-13.585,-18.357c0,-0 -18.634,-3.494 -26.888,-0c-15.082,6.384 -65.407,36.859 -65.407,36.859c7.167,11.069 15.237,14.732 25.295,19.056Z" style="fill:#fff;"/><path d="M265.736,87.737c-10.611,-4.561 -19.067,-8.503 -26.629,-20.182c-0.441,-0.681 -0.587,-1.511 -0.405,-2.302c0.182,-0.791 0.676,-1.474 1.37,-1.894c-0,-0 50.623,-30.635 65.791,-37.056c3.628,-1.535 9.069,-1.929 14.306,-1.745c7.38,0.26 14.305,1.559 14.305,1.559c0.744,0.14 1.408,0.555 1.859,1.164l13.584,18.358c0.674,0.91 0.778,2.123 0.268,3.134c-0.51,1.012 -1.546,1.65 -2.679,1.65c-0,0 -30.999,0.001 -31,0.002c-15.984,6.143 -32.136,16.389 -47.189,36.362c-0.832,1.104 -2.311,1.496 -3.581,0.95Zm1.185,-2.756c15.636,-20.745 32.434,-31.266 49.033,-37.557l31.552,-0.001l-13.585,-18.357c0,-0 -18.634,-3.494 -26.888,-0c-15.082,6.384 -65.407,36.859 -65.407,36.859c7.167,11.069 15.237,14.732 25.295,19.056Z"/></g></g></svg>
