<?xml version="1.0" encoding="UTF-8" standalone="no"?><!DOCTYPE svg PUBLIC "-//W3C//DTD SVG 1.1//EN" "http://www.w3.org/Graphics/SVG/1.1/DTD/svg11.dtd"><svg width="100%" height="100%" viewBox="0 0 1522 539" version="1.1" xmlns="http://www.w3.org/2000/svg" xmlns:xlink="http://www.w3.org/1999/xlink" xml:space="preserve" xmlns:serif="http://www.serif.com/" style="fill-rule:evenodd;clip-rule:evenodd;stroke-linecap:round;stroke-linejoin:round;stroke-miterlimit:1.5;"><rect id="Logo---name--light-background" serif:id="Logo + name, light background" x="0" y="0" width="1521.45" height="538.508" style="fill:none;"/><path d="M538.833,195.177l0,18.47c7.593,-7.593 15.802,-13.288 24.626,-17.084c8.824,-3.797 18.264,-5.695 28.32,-5.695c21.855,-0 40.427,8.26 55.716,24.78c15.288,16.52 22.933,37.708 22.933,63.565c-0,24.934 -7.901,45.789 -23.703,62.565c-15.801,16.777 -34.527,25.165 -56.177,25.165c-9.646,-0 -18.624,-1.719 -26.935,-5.156c-8.311,-3.437 -16.571,-9.055 -24.78,-16.853l0,78.956l-41.71,0l0,-228.713l41.71,0Zm44.173,34.477c-13.237,-0 -24.216,4.514 -32.937,13.544c-8.722,9.029 -13.083,20.829 -13.083,35.4c0,14.878 4.361,26.909 13.083,36.092c8.721,9.183 19.7,13.775 32.937,13.775c12.826,0 23.625,-4.669 32.398,-14.006c8.773,-9.337 13.16,-21.24 13.16,-35.707c-0,-14.366 -4.31,-26.14 -12.929,-35.323c-8.619,-9.184 -19.495,-13.775 -32.629,-13.775Z" style="fill:#1a1a1a;fill-rule:nonzero;"/><path d="M783.861,190.868c15.801,-0 30.654,3.95 44.557,11.851c13.904,7.901 24.754,18.623 32.552,32.168c7.799,13.544 11.698,28.166 11.698,43.865c-0,15.801 -3.925,30.577 -11.774,44.326c-7.85,13.75 -18.547,24.498 -32.091,32.245c-13.544,7.747 -28.474,11.62 -44.788,11.62c-24.011,-0 -44.507,-8.542 -61.488,-25.626c-16.982,-17.085 -25.473,-37.837 -25.473,-62.258c0,-26.165 9.594,-47.969 28.782,-65.412c16.828,-15.186 36.169,-22.779 58.025,-22.779Zm0.692,39.555c-13.053,0 -23.923,4.541 -32.607,13.621c-8.685,9.081 -13.028,20.702 -13.028,34.861c0,14.571 4.292,26.371 12.874,35.4c8.582,9.03 19.451,13.544 32.607,13.544c13.157,0 24.103,-4.566 32.839,-13.698c8.736,-9.132 13.104,-20.88 13.104,-35.246c0,-14.365 -4.291,-26.036 -12.873,-35.014c-8.582,-8.979 -19.554,-13.468 -32.916,-13.468Z" style="fill:#1a1a1a;fill-rule:nonzero;"/><path d="M948.7,195.177l0,18.47c7.593,-7.593 15.802,-13.288 24.626,-17.084c8.824,-3.797 18.264,-5.695 28.32,-5.695c21.855,-0 40.427,8.26 55.716,24.78c15.288,16.52 22.933,37.708 22.933,63.565c-0,24.934 -7.901,45.789 -23.703,62.565c-15.801,16.777 -34.527,25.165 -56.177,25.165c-9.646,-0 -18.624,-1.719 -26.935,-5.156c-8.311,-3.437 -16.571,-9.055 -24.78,-16.853l0,78.956l-41.71,0l0,-228.713l41.71,0Zm44.173,34.477c-13.237,-0 -24.216,4.514 -32.937,13.544c-8.722,9.029 -13.083,20.829 -13.083,35.4c0,14.878 4.361,26.909 13.083,36.092c8.721,9.183 19.7,13.775 32.937,13.775c12.826,0 23.625,-4.669 32.398,-14.006c8.773,-9.337 13.16,-21.24 13.16,-35.707c-0,-14.366 -4.31,-26.14 -12.929,-35.323c-8.619,-9.184 -19.495,-13.775 -32.629,-13.775Z" style="fill:#1a1a1a;fill-rule:nonzero;"/><path d="M1156.79,195.177l-0,18.47c7.593,-7.593 15.801,-13.288 24.626,-17.084c8.824,-3.797 18.264,-5.695 28.319,-5.695c21.856,-0 40.428,8.26 55.717,24.78c15.288,16.52 22.932,37.708 22.932,63.565c0,24.934 -7.9,45.789 -23.702,62.565c-15.802,16.777 -34.528,25.165 -56.178,25.165c-9.645,-0 -18.623,-1.719 -26.934,-5.156c-8.312,-3.437 -16.572,-9.055 -24.78,-16.853l-0,78.956l-41.71,0l-0,-228.713l41.71,0Zm44.173,34.477c-13.237,-0 -24.216,4.514 -32.938,13.544c-8.721,9.029 -13.082,20.829 -13.082,35.4c-0,14.878 4.361,26.909 13.082,36.092c8.722,9.183 19.701,13.775 32.938,13.775c12.825,0 23.625,-4.669 32.398,-14.006c8.773,-9.337 13.159,-21.24 13.159,-35.707c0,-14.366 -4.309,-26.14 -12.928,-35.323c-8.619,-9.184 -19.496,-13.775 -32.629,-13.775Z" style="fill:#1a1a1a;fill-rule:nonzero;"/><path d="M1304.59,195.177l42.939,0l43.497,105.072l47.997,-105.072l43.061,0l-104.876,228.713l-43.396,0l34.433,-73.752l-63.655,-154.961Z" style="fill:#1a1a1a;fill-rule:nonzero;"/><g id="snake"><path id="tongue" d="M374.207,127.052l88.688,-0l-56.562,-0c35.136,-3.669 55.142,-22.466 56.562,-59.85" style="fill:none;stroke:#eb0003;stroke-width:9.97px;"/><path id="body-behind-fill" serif:id="body behind fill" d="M356.233,354.441c-12.554,-5.139 -28.052,-8.554 -47.705,-8.37l-81.86,-0.077c-77.672,2.715 -123.636,14.512 -123.636,40.959c0,33.038 54.278,57.454 132.302,57.454c32.117,0 124.758,0.289 164.207,0.289c40.791,0 61.482,24.075 63.354,64.823l-227.62,0.687c-122.453,-3.56 -188.959,-42.087 -197.843,-116.627c-3.771,-71.401 73.973,-113.406 164.36,-113.406c38.566,0 80.497,0.098 112.094,0.098c76.309,0 118.651,37.082 118.651,74.17" style="fill:#2dcd47;"/><path id="shade-3" serif:id="shade 3" d="M101.22,386.455c-0,-0 3.899,-25.554 17.326,-36.365c19.68,-15.847 49.673,-20.156 83.023,-23.358c38.284,-3.677 77.355,-2.812 103.286,-1.145c8.293,0.533 27.433,1.197 39.237,8.962c9.854,6.482 14.2,20.584 14.2,20.584c0,-0 -22.018,-8.901 -40.324,-8.901c-22.771,0 -73.024,-0.238 -91.3,-0.238c-66.096,0 -123.786,14.275 -125.448,40.461Z" style="fill:#009718;"/><path id="shade-2" serif:id="shade 2" d="M462.895,509.519c0,0 -9.033,-19.03 -16.606,-19.03c-37.717,0 -194.986,0.369 -232.702,0.369c-21.99,-0 -61.127,-3.597 -87.112,-10.565c-22.794,-6.113 -32.055,-9.403 -64.285,-27.822c31.285,31.654 83.818,55.335 150.43,56.633c41.329,0.806 250.275,0.415 250.275,0.415Z" style="fill:#009718;"/><path id="body-behind-outline" serif:id="body behind outline" d="M356.233,353.957c-12.554,-5.139 -28.052,-8.07 -47.705,-7.886l-81.86,-0.077c-77.672,2.715 -123.636,14.512 -123.636,40.959c0,33.038 54.278,57.454 132.302,57.454c32.117,0 124.758,0.289 164.207,0.289c40.791,0 61.482,24.075 63.354,64.823l-227.62,0.687c-122.453,-3.56 -188.959,-42.087 -197.843,-116.627c-3.771,-71.401 73.973,-113.406 164.36,-113.406c38.566,0 80.497,0.098 112.094,0.098c76.309,0 118.651,36.598 118.651,73.686" style="fill:none;stroke:#000;stroke-width:3px;"/><path id="body-in-front-fill" serif:id="body in front fill" d="M432.537,353.957c0,43.742 -62.35,72.981 -106.092,72.981c-20.654,0 -59.728,0.806 -87.66,0.806c-74.893,-0 -119.255,-63.488 -119.255,-133.364c-3.182,-69.804 1.21,-97.49 15.284,-132.887c30.919,-77.765 94.516,-88.665 127.93,-91.757c43.843,-4.057 120.299,-0.229 120.299,-0.229c0.81,61.868 -20.666,95.45 -65.993,98.76l-110.904,-0c-11.813,16.944 -18.956,36.223 -20.121,58.491l-0.731,53.186c-3.406,51.185 14.388,82.538 65.993,82.262l56.465,-0.112c17.947,-0.033 34.083,-2.782 48.481,-8.137" style="fill:#2dcd47;"/><path d="M204.381,168.561c0,-0 12.103,-19.093 38.672,-19.093c29.366,-0 55.325,-0.006 84.691,-0.006c24.487,0 43.764,-15.808 43.764,-15.808c-5.922,15.387 -27.077,34.613 -57.882,34.613c-28.158,-0 -109.245,0.294 -109.245,0.294Z" style="fill:#009718;"/><path id="shade-1" serif:id="shade 1" d="M426.495,376.935c-16.685,30.7 -64.51,50.003 -100.05,50.003c-20.654,0 -59.728,0.806 -87.66,0.806c-42.128,-0 -74.595,-20.088 -94.94,-50.102c0,0 43.783,25.315 68.219,28.225c37.077,4.417 118.502,3.095 154.24,-1.727c21.82,-2.945 60.191,-27.205 60.191,-27.205Z" style="fill:#009718;"/><path id="body-in-front-outline" serif:id="body in front outline" d="M432.537,353.957c0,43.742 -62.35,72.981 -106.092,72.981c-20.654,0 -59.728,0.806 -87.66,0.806c-74.893,-0 -119.255,-63.488 -119.255,-133.364c-3.182,-69.804 1.21,-97.49 15.284,-132.887c30.919,-77.765 94.516,-88.665 127.93,-91.757c43.843,-4.057 120.299,-0.229 120.299,-0.229c0.81,61.868 -20.666,95.45 -65.993,98.76l-110.904,-0c-11.813,16.944 -18.956,36.223 -20.121,58.491l-0.731,53.186c-3.406,51.185 14.388,82.538 65.993,82.262l56.465,-0.112c17.947,-0.033 34.083,-2.782 48.481,-8.137" style="fill:none;stroke:#000;stroke-width:3px;"/><circle cx="322.821" cy="99.39" r="8.983"/><g id="hat"><path d="M326.321,64.659c0,-0 -18.394,-26.438 -32.969,-32.147c-14.575,-5.71 -36.82,-6.189 -52.036,2.168c-23.549,12.933 -61.553,45.315 -87.451,75.429c-11.095,12.901 -28.186,45.628 -28.186,45.628c9.931,-0.24 18.971,1.302 26.011,6.845c8.125,6.574 17.9,8.746 28.916,7.61c0,0 25.599,-40.251 40.835,-55.289c21.466,-21.189 50.952,-34.558 50.952,-34.558c21.956,-10.66 37.754,-17.555 53.928,-15.686Z" style="fill:#fff;stroke:#000;stroke-width:3px;"/><path d="M267.019,104.235c15.635,-20.745 32.434,-31.266 49.033,-37.557l31.551,-0.001l-13.584,-18.358c-0,0 -18.635,-3.493 -26.889,0c-15.081,6.385 -65.407,36.86 -65.407,36.86c7.167,11.069 15.238,14.732 25.296,19.056Z" style="fill:#fff;"/><path d="M265.834,106.991c-10.612,-4.562 -19.067,-8.503 -26.629,-20.182c-0.441,-0.681 -0.587,-1.511 -0.406,-2.302c0.182,-0.791 0.676,-1.474 1.37,-1.894c0,-0 50.624,-30.635 65.792,-37.056c3.627,-1.536 9.069,-1.929 14.305,-1.745c7.381,0.26 14.305,1.559 14.305,1.559c0.745,0.139 1.409,0.555 1.859,1.164l13.585,18.357c0.674,0.911 0.777,2.124 0.267,3.135c-0.51,1.012 -1.546,1.65 -2.679,1.65c0,0 -30.998,0.001 -30.999,0.002c-15.985,6.143 -32.136,16.389 -47.189,36.362c-0.832,1.104 -2.311,1.496 -3.581,0.95Zm1.185,-2.756c15.635,-20.745 32.434,-31.266 49.033,-37.557l31.551,-0.001l-13.584,-18.358c-0,0 -18.635,-3.493 -26.889,0c-15.081,6.385 -65.407,36.86 -65.407,36.86c7.167,11.069 15.238,14.732 25.296,19.056Z"/></g></g></svg>
