<?xml version="1.0" encoding="UTF-8" standalone="no"?>
<!DOCTYPE svg PUBLIC "-//W3C//DTD SVG 1.1//EN"
 "http://www.w3.org/Graphics/SVG/1.1/DTD/svg11.dtd">
<!-- Generated by graphviz version 2.43.0 (0)
 -->
<!-- Title: snakemake_dag Pages: 1 -->
<svg width="2203pt" height="1340pt"
 viewBox="0.00 0.00 2202.98 1340.00" xmlns="http://www.w3.org/2000/svg" xmlns:xlink="http://www.w3.org/1999/xlink">
<g id="graph0" class="graph" transform="scale(1 1) rotate(0) translate(4 1336)">
<title>snakemake_dag</title>
<polygon fill="white" stroke="transparent" points="-4,4 -4,-1336 2198.98,-1336 2198.98,4 -4,4"/>
<!-- 0 -->
<g id="node1" class="node">
<title>0</title>
<path fill="none" stroke="#567bd8" stroke-width="2" d="M1024,-36C1024,-36 994,-36 994,-36 988,-36 982,-30 982,-24 982,-24 982,-12 982,-12 982,-6 988,0 994,0 994,0 1024,0 1024,0 1030,0 1036,-6 1036,-12 1036,-12 1036,-24 1036,-24 1036,-30 1030,-36 1024,-36"/>
<text text-anchor="middle" x="1009" y="-15.5" font-family="sans" font-size="10.00">all</text>
</g>
<!-- 1 -->
<g id="node2" class="node">
<title>1</title>
<path fill="none" stroke="#56b9d8" stroke-width="2" d="M2172,-1332C2172,-1332 2054,-1332 2054,-1332 2048,-1332 2042,-1326 2042,-1320 2042,-1320 2042,-1308 2042,-1308 2042,-1302 2048,-1296 2054,-1296 2054,-1296 2172,-1296 2172,-1296 2178,-1296 2184,-1302 2184,-1308 2184,-1308 2184,-1320 2184,-1320 2184,-1326 2178,-1332 2172,-1332"/>
<text text-anchor="middle" x="2113" y="-1311.5" font-family="sans" font-size="10.00">copy_alignment_bam_file</text>
</g>
<!-- 1&#45;&gt;0 -->
<g id="edge6" class="edge">
<title>1&#45;&gt;0</title>
<path fill="none" stroke="grey" stroke-width="2" d="M2120.69,-1295.91C2131.79,-1269.62 2151,-1217.45 2151,-1171 2151,-1171 2151,-1171 2151,-161 2151,-122.11 2331.04,-159.41 1960,-72 1781.8,-30.02 1200.35,-21.01 1046.58,-19.34"/>
<polygon fill="grey" stroke="grey" stroke-width="2" points="1046.3,-15.84 1036.26,-19.23 1046.22,-22.84 1046.3,-15.84"/>
</g>
<!-- 9 -->
<g id="node10" class="node">
<title>9</title>
<path fill="none" stroke="#56b1d8" stroke-width="2" d="M782.5,-1260C782.5,-1260 657.5,-1260 657.5,-1260 651.5,-1260 645.5,-1254 645.5,-1248 645.5,-1248 645.5,-1236 645.5,-1236 645.5,-1230 651.5,-1224 657.5,-1224 657.5,-1224 782.5,-1224 782.5,-1224 788.5,-1224 794.5,-1230 794.5,-1236 794.5,-1236 794.5,-1248 794.5,-1248 794.5,-1254 788.5,-1260 782.5,-1260"/>
<text text-anchor="middle" x="720" y="-1239.5" font-family="sans" font-size="10.00">alignment_samtools_index</text>
</g>
<!-- 1&#45;&gt;9 -->
<g id="edge16" class="edge">
<title>1&#45;&gt;9</title>
<path fill="none" stroke="grey" stroke-width="2" d="M2041.52,-1309.41C1806.49,-1297.6 1058.17,-1259.99 804.8,-1247.26"/>
<polygon fill="grey" stroke="grey" stroke-width="2" points="804.72,-1243.75 794.55,-1246.75 804.37,-1250.74 804.72,-1243.75"/>
</g>
<!-- 2 -->
<g id="node3" class="node">
<title>2</title>
<path fill="none" stroke="#afd856" stroke-width="2" d="M1027,-972C1027,-972 911,-972 911,-972 905,-972 899,-966 899,-960 899,-960 899,-948 899,-948 899,-942 905,-936 911,-936 911,-936 1027,-936 1027,-936 1033,-936 1039,-942 1039,-948 1039,-948 1039,-960 1039,-960 1039,-966 1033,-972 1027,-972"/>
<text text-anchor="middle" x="969" y="-951.5" font-family="sans" font-size="10.00">alignment_samtools_sort</text>
</g>
<!-- 2&#45;&gt;1 -->
<g id="edge7" class="edge">
<title>2&#45;&gt;1</title>
<path fill="none" stroke="grey" stroke-width="2" d="M1039.05,-954.34C1217.44,-953.44 1684.98,-956.25 1830,-1008 1933.16,-1044.81 1958.49,-1069.03 2030,-1152 2065.54,-1193.23 2090.96,-1252.31 2103.7,-1286.25"/>
<polygon fill="grey" stroke="grey" stroke-width="2" points="2100.52,-1287.74 2107.25,-1295.93 2107.1,-1285.34 2100.52,-1287.74"/>
</g>
<!-- 5 -->
<g id="node6" class="node">
<title>5</title>
<path fill="none" stroke="#b6d856" stroke-width="2" d="M741,-1188C741,-1188 577,-1188 577,-1188 571,-1188 565,-1182 565,-1176 565,-1176 565,-1164 565,-1164 565,-1158 571,-1152 577,-1152 577,-1152 741,-1152 741,-1152 747,-1152 753,-1158 753,-1164 753,-1164 753,-1176 753,-1176 753,-1182 747,-1188 741,-1188"/>
<text text-anchor="middle" x="659" y="-1167.5" font-family="sans" font-size="10.00">alignment_samtools_extract_reads</text>
</g>
<!-- 2&#45;&gt;5 -->
<g id="edge13" class="edge">
<title>2&#45;&gt;5</title>
<path fill="none" stroke="grey" stroke-width="2" d="M938.5,-972.23C921.11,-982.28 899.06,-995.42 880,-1008 809.95,-1054.23 731.23,-1113.41 689.24,-1145.59"/>
<polygon fill="grey" stroke="grey" stroke-width="2" points="686.9,-1142.98 681.1,-1151.84 691.16,-1148.53 686.9,-1142.98"/>
</g>
<!-- 2&#45;&gt;9 -->
<g id="edge18" class="edge">
<title>2&#45;&gt;9</title>
<path fill="none" stroke="grey" stroke-width="2" d="M958.79,-972.23C934.15,-1012.91 868.05,-1116.84 795,-1188 783.68,-1199.03 769.88,-1209.46 757.22,-1218.11"/>
<polygon fill="grey" stroke="grey" stroke-width="2" points="755.07,-1215.34 748.68,-1223.79 758.95,-1221.16 755.07,-1215.34"/>
</g>
<!-- 12 -->
<g id="node13" class="node">
<title>12</title>
<path fill="none" stroke="#d87556" stroke-width="2" d="M1911.5,-900C1911.5,-900 1750.5,-900 1750.5,-900 1744.5,-900 1738.5,-894 1738.5,-888 1738.5,-888 1738.5,-876 1738.5,-876 1738.5,-870 1744.5,-864 1750.5,-864 1750.5,-864 1911.5,-864 1911.5,-864 1917.5,-864 1923.5,-870 1923.5,-876 1923.5,-876 1923.5,-888 1923.5,-888 1923.5,-894 1917.5,-900 1911.5,-900"/>
<text text-anchor="middle" x="1831" y="-879.5" font-family="sans" font-size="10.00">qc_picard_collect_gc_bias_metrics</text>
</g>
<!-- 2&#45;&gt;12 -->
<g id="edge29" class="edge">
<title>2&#45;&gt;12</title>
<path fill="none" stroke="grey" stroke-width="2" d="M1039.23,-948.5C1207.93,-937.64 1628.83,-910.2 1728.07,-900.08"/>
<polygon fill="grey" stroke="grey" stroke-width="2" points="1728.75,-903.53 1738.31,-898.96 1727.99,-896.57 1728.75,-903.53"/>
</g>
<!-- 14 -->
<g id="node15" class="node">
<title>14</title>
<path fill="none" stroke="#568ad8" stroke-width="2" d="M838,-900C838,-900 662,-900 662,-900 656,-900 650,-894 650,-888 650,-888 650,-876 650,-876 650,-870 656,-864 662,-864 662,-864 838,-864 838,-864 844,-864 850,-870 850,-876 850,-876 850,-888 850,-888 850,-894 844,-900 838,-900"/>
<text text-anchor="middle" x="750" y="-879.5" font-family="sans" font-size="10.00">qc_picard_collect_insert_size_metrics</text>
</g>
<!-- 2&#45;&gt;14 -->
<g id="edge30" class="edge">
<title>2&#45;&gt;14</title>
<path fill="none" stroke="grey" stroke-width="2" d="M915.71,-935.97C884.84,-926.1 845.8,-913.62 813.37,-903.25"/>
<polygon fill="grey" stroke="grey" stroke-width="2" points="814.12,-899.82 803.53,-900.11 811.99,-906.49 814.12,-899.82"/>
</g>
<!-- 15 -->
<g id="node16" class="node">
<title>15</title>
<path fill="none" stroke="#78d856" stroke-width="2" d="M1058,-900C1058,-900 880,-900 880,-900 874,-900 868,-894 868,-888 868,-888 868,-876 868,-876 868,-870 874,-864 880,-864 880,-864 1058,-864 1058,-864 1064,-864 1070,-870 1070,-876 1070,-876 1070,-888 1070,-888 1070,-894 1064,-900 1058,-900"/>
<text text-anchor="middle" x="969" y="-879.5" font-family="sans" font-size="10.00">qc_picard_collect_duplication_metrics</text>
</g>
<!-- 2&#45;&gt;15 -->
<g id="edge31" class="edge">
<title>2&#45;&gt;15</title>
<path fill="none" stroke="grey" stroke-width="2" d="M969,-935.7C969,-927.98 969,-918.71 969,-910.11"/>
<polygon fill="grey" stroke="grey" stroke-width="2" points="972.5,-910.1 969,-900.1 965.5,-910.1 972.5,-910.1"/>
</g>
<!-- 16 -->
<g id="node17" class="node">
<title>16</title>
<path fill="none" stroke="#56d8d0" stroke-width="2" d="M2034.5,-900C2034.5,-900 1953.5,-900 1953.5,-900 1947.5,-900 1941.5,-894 1941.5,-888 1941.5,-888 1941.5,-876 1941.5,-876 1941.5,-870 1947.5,-864 1953.5,-864 1953.5,-864 2034.5,-864 2034.5,-864 2040.5,-864 2046.5,-870 2046.5,-876 2046.5,-876 2046.5,-888 2046.5,-888 2046.5,-894 2040.5,-900 2034.5,-900"/>
<text text-anchor="middle" x="1994" y="-879.5" font-family="sans" font-size="10.00">qc_mosdepth_bed</text>
</g>
<!-- 2&#45;&gt;16 -->
<g id="edge33" class="edge">
<title>2&#45;&gt;16</title>
<path fill="none" stroke="grey" stroke-width="2" d="M1039.12,-948.44C1094.26,-944.9 1173.02,-939.94 1242,-936 1545.73,-918.63 1627.74,-948.91 1931.29,-900.08"/>
<polygon fill="grey" stroke="grey" stroke-width="2" points="1931.95,-903.52 1941.26,-898.46 1930.83,-896.61 1931.95,-903.52"/>
</g>
<!-- 17 -->
<g id="node18" class="node">
<title>17</title>
<path fill="none" stroke="#56b9d8" stroke-width="2" d="M1406.5,-900C1406.5,-900 1181.5,-900 1181.5,-900 1175.5,-900 1169.5,-894 1169.5,-888 1169.5,-888 1169.5,-876 1169.5,-876 1169.5,-870 1175.5,-864 1181.5,-864 1181.5,-864 1406.5,-864 1406.5,-864 1412.5,-864 1418.5,-870 1418.5,-876 1418.5,-876 1418.5,-888 1418.5,-888 1418.5,-894 1412.5,-900 1406.5,-900"/>
<text text-anchor="middle" x="1294" y="-879.5" font-family="sans" font-size="10.00">qc_picard_collect_alignment_summary_metrics</text>
</g>
<!-- 2&#45;&gt;17 -->
<g id="edge34" class="edge">
<title>2&#45;&gt;17</title>
<path fill="none" stroke="grey" stroke-width="2" d="M1039.12,-937.9C1087.68,-927.44 1152.72,-913.43 1204.94,-902.18"/>
<polygon fill="grey" stroke="grey" stroke-width="2" points="1205.83,-905.57 1214.87,-900.04 1204.36,-898.73 1205.83,-905.57"/>
</g>
<!-- 18 -->
<g id="node19" class="node">
<title>18</title>
<path fill="none" stroke="#56d8a2" stroke-width="2" d="M1531.5,-900C1531.5,-900 1448.5,-900 1448.5,-900 1442.5,-900 1436.5,-894 1436.5,-888 1436.5,-888 1436.5,-876 1436.5,-876 1436.5,-870 1442.5,-864 1448.5,-864 1448.5,-864 1531.5,-864 1531.5,-864 1537.5,-864 1543.5,-870 1543.5,-876 1543.5,-876 1543.5,-888 1543.5,-888 1543.5,-894 1537.5,-900 1531.5,-900"/>
<text text-anchor="middle" x="1490" y="-879.5" font-family="sans" font-size="10.00">qc_samtools_stats</text>
</g>
<!-- 2&#45;&gt;18 -->
<g id="edge35" class="edge">
<title>2&#45;&gt;18</title>
<path fill="none" stroke="grey" stroke-width="2" d="M1039.1,-948.25C1127.45,-941.52 1284.01,-927.12 1426.14,-900.21"/>
<polygon fill="grey" stroke="grey" stroke-width="2" points="1427.19,-903.57 1436.35,-898.25 1425.87,-896.7 1427.19,-903.57"/>
</g>
<!-- 19 -->
<g id="node20" class="node">
<title>19</title>
<path fill="none" stroke="#d87d56" stroke-width="2" d="M1708.5,-900C1708.5,-900 1573.5,-900 1573.5,-900 1567.5,-900 1561.5,-894 1561.5,-888 1561.5,-888 1561.5,-876 1561.5,-876 1561.5,-870 1567.5,-864 1573.5,-864 1573.5,-864 1708.5,-864 1708.5,-864 1714.5,-864 1720.5,-870 1720.5,-876 1720.5,-876 1720.5,-888 1720.5,-888 1720.5,-894 1714.5,-900 1708.5,-900"/>
<text text-anchor="middle" x="1641" y="-879.5" font-family="sans" font-size="10.00">qc_picard_collect_hs_metrics</text>
</g>
<!-- 2&#45;&gt;19 -->
<g id="edge36" class="edge">
<title>2&#45;&gt;19</title>
<path fill="none" stroke="grey" stroke-width="2" d="M1039.38,-948.9C1147.49,-942.1 1361.08,-926.66 1551.52,-900.14"/>
<polygon fill="grey" stroke="grey" stroke-width="2" points="1552.02,-903.6 1561.43,-898.74 1551.04,-896.67 1552.02,-903.6"/>
</g>
<!-- 39 -->
<g id="node40" class="node">
<title>39</title>
<path fill="none" stroke="#56d89a" stroke-width="2" d="M460,-756C460,-756 376,-756 376,-756 370,-756 364,-750 364,-744 364,-744 364,-732 364,-732 364,-726 370,-720 376,-720 376,-720 460,-720 460,-720 466,-720 472,-726 472,-732 472,-732 472,-744 472,-744 472,-750 466,-756 460,-756"/>
<text text-anchor="middle" x="418" y="-735.5" font-family="sans" font-size="10.00">cnv_sv_pindel_call</text>
</g>
<!-- 2&#45;&gt;39 -->
<g id="edge77" class="edge">
<title>2&#45;&gt;39</title>
<path fill="none" stroke="grey" stroke-width="2" d="M898.83,-947.2C816.06,-939.41 684.23,-923.74 641,-900 612.85,-884.54 571.14,-810.65 545,-792 525.94,-778.4 502.87,-767.45 481.64,-759.11"/>
<polygon fill="grey" stroke="grey" stroke-width="2" points="482.63,-755.74 472.04,-755.46 480.14,-762.28 482.63,-755.74"/>
</g>
<!-- 40 -->
<g id="node41" class="node">
<title>40</title>
<path fill="none" stroke="#c6d856" stroke-width="2" d="M524.5,-828C524.5,-828 379.5,-828 379.5,-828 373.5,-828 367.5,-822 367.5,-816 367.5,-816 367.5,-804 367.5,-804 367.5,-798 373.5,-792 379.5,-792 379.5,-792 524.5,-792 524.5,-792 530.5,-792 536.5,-798 536.5,-804 536.5,-804 536.5,-816 536.5,-816 536.5,-822 530.5,-828 524.5,-828"/>
<text text-anchor="middle" x="452" y="-807.5" font-family="sans" font-size="10.00">cnv_sv_pindel_generate_config</text>
</g>
<!-- 2&#45;&gt;40 -->
<g id="edge79" class="edge">
<title>2&#45;&gt;40</title>
<path fill="none" stroke="grey" stroke-width="2" d="M898.79,-951.68C753.43,-948.21 430.22,-936.44 397,-900 378.91,-880.15 400.06,-853.55 421.16,-834.61"/>
<polygon fill="grey" stroke="grey" stroke-width="2" points="423.54,-837.17 428.85,-828 418.99,-831.86 423.54,-837.17"/>
</g>
<!-- 41 -->
<g id="node42" class="node">
<title>41</title>
<path fill="none" stroke="#5673d8" stroke-width="2" d="M582,-900C582,-900 418,-900 418,-900 412,-900 406,-894 406,-888 406,-888 406,-876 406,-876 406,-870 412,-864 418,-864 418,-864 582,-864 582,-864 588,-864 594,-870 594,-876 594,-876 594,-888 594,-888 594,-894 588,-900 582,-900"/>
<text text-anchor="middle" x="500" y="-879.5" font-family="sans" font-size="10.00">qc_picard_collect_multiple_metrics</text>
</g>
<!-- 2&#45;&gt;41 -->
<g id="edge80" class="edge">
<title>2&#45;&gt;41</title>
<path fill="none" stroke="grey" stroke-width="2" d="M898.75,-942.91C825.98,-932.4 708.98,-915.36 608,-900 606.73,-899.81 605.46,-899.61 604.18,-899.42"/>
<polygon fill="grey" stroke="grey" stroke-width="2" points="604.65,-895.95 594.23,-897.89 603.59,-902.87 604.65,-895.95"/>
</g>
<!-- 3 -->
<g id="node4" class="node">
<title>3</title>
<path fill="none" stroke="#d88556" stroke-width="2" d="M651,-1044C651,-1044 495,-1044 495,-1044 489,-1044 483,-1038 483,-1032 483,-1032 483,-1020 483,-1020 483,-1014 489,-1008 495,-1008 495,-1008 651,-1008 651,-1008 657,-1008 663,-1014 663,-1020 663,-1020 663,-1032 663,-1032 663,-1038 657,-1044 651,-1044"/>
<text text-anchor="middle" x="573" y="-1023.5" font-family="sans" font-size="10.00">alignment_samtools_merge_bam</text>
</g>
<!-- 3&#45;&gt;2 -->
<g id="edge8" class="edge">
<title>3&#45;&gt;2</title>
<path fill="none" stroke="grey" stroke-width="2" d="M663.35,-1009.03C731.18,-997.04 823.21,-980.77 888.51,-969.23"/>
<polygon fill="grey" stroke="grey" stroke-width="2" points="889.52,-972.6 898.75,-967.42 888.3,-965.71 889.52,-972.6"/>
</g>
<!-- 4 -->
<g id="node5" class="node">
<title>4</title>
<path fill="none" stroke="#56d87b" stroke-width="2" d="M497,-1116C497,-1116 333,-1116 333,-1116 327,-1116 321,-1110 321,-1104 321,-1104 321,-1092 321,-1092 321,-1086 327,-1080 333,-1080 333,-1080 497,-1080 497,-1080 503,-1080 509,-1086 509,-1092 509,-1092 509,-1104 509,-1104 509,-1110 503,-1116 497,-1116"/>
<text text-anchor="middle" x="415" y="-1095.5" font-family="sans" font-size="10.00">alignment_picard_mark_duplicates</text>
</g>
<!-- 4&#45;&gt;3 -->
<g id="edge10" class="edge">
<title>4&#45;&gt;3</title>
<path fill="none" stroke="grey" stroke-width="2" d="M453.65,-1079.88C475.25,-1070.31 502.35,-1058.3 525.27,-1048.15"/>
<polygon fill="grey" stroke="grey" stroke-width="2" points="526.75,-1051.32 534.47,-1044.07 523.91,-1044.92 526.75,-1051.32"/>
</g>
<!-- 4&#45;&gt;9 -->
<g id="edge17" class="edge">
<title>4&#45;&gt;9</title>
<path fill="none" stroke="grey" stroke-width="2" d="M431.3,-1116.33C451.13,-1136.42 486.5,-1169.18 523,-1188 557.82,-1205.95 599.32,-1218.28 635.23,-1226.5"/>
<polygon fill="grey" stroke="grey" stroke-width="2" points="634.69,-1229.97 645.21,-1228.71 636.2,-1223.13 634.69,-1229.97"/>
</g>
<!-- 30 -->
<g id="node31" class="node">
<title>30</title>
<path fill="none" stroke="#d8cb56" stroke-width="2" d="M177.5,-1044C177.5,-1044 60.5,-1044 60.5,-1044 54.5,-1044 48.5,-1038 48.5,-1032 48.5,-1032 48.5,-1020 48.5,-1020 48.5,-1014 54.5,-1008 60.5,-1008 60.5,-1008 177.5,-1008 177.5,-1008 183.5,-1008 189.5,-1014 189.5,-1020 189.5,-1020 189.5,-1032 189.5,-1032 189.5,-1038 183.5,-1044 177.5,-1044"/>
<text text-anchor="middle" x="119" y="-1023.5" font-family="sans" font-size="10.00">snv_indels_gatk_mutect2</text>
</g>
<!-- 4&#45;&gt;30 -->
<g id="edge58" class="edge">
<title>4&#45;&gt;30</title>
<path fill="none" stroke="grey" stroke-width="2" d="M342.97,-1079.97C299.62,-1069.71 244.33,-1056.64 199.54,-1046.05"/>
<polygon fill="grey" stroke="grey" stroke-width="2" points="200.1,-1042.58 189.56,-1043.69 198.49,-1049.39 200.1,-1042.58"/>
</g>
<!-- 34 -->
<g id="node35" class="node">
<title>34</title>
<path fill="none" stroke="#56d882" stroke-width="2" d="M450.5,-1044C450.5,-1044 367.5,-1044 367.5,-1044 361.5,-1044 355.5,-1038 355.5,-1032 355.5,-1032 355.5,-1020 355.5,-1020 355.5,-1014 361.5,-1008 367.5,-1008 367.5,-1008 450.5,-1008 450.5,-1008 456.5,-1008 462.5,-1014 462.5,-1020 462.5,-1020 462.5,-1032 462.5,-1032 462.5,-1038 456.5,-1044 450.5,-1044"/>
<text text-anchor="middle" x="409" y="-1023.5" font-family="sans" font-size="10.00">snv_indels_vardict</text>
</g>
<!-- 4&#45;&gt;34 -->
<g id="edge65" class="edge">
<title>4&#45;&gt;34</title>
<path fill="none" stroke="grey" stroke-width="2" d="M413.52,-1079.7C412.86,-1071.98 412.06,-1062.71 411.32,-1054.11"/>
<polygon fill="grey" stroke="grey" stroke-width="2" points="414.81,-1053.77 410.47,-1044.1 407.83,-1054.37 414.81,-1053.77"/>
</g>
<!-- 35 -->
<g id="node36" class="node">
<title>35</title>
<path fill="none" stroke="#d8cb56" stroke-width="2" d="M318,-1044C318,-1044 220,-1044 220,-1044 214,-1044 208,-1038 208,-1032 208,-1032 208,-1020 208,-1020 208,-1014 214,-1008 220,-1008 220,-1008 318,-1008 318,-1008 324,-1008 330,-1014 330,-1020 330,-1020 330,-1032 330,-1032 330,-1038 324,-1044 318,-1044"/>
<text text-anchor="middle" x="269" y="-1023.5" font-family="sans" font-size="10.00">snv_indels_freebayes</text>
</g>
<!-- 4&#45;&gt;35 -->
<g id="edge68" class="edge">
<title>4&#45;&gt;35</title>
<path fill="none" stroke="grey" stroke-width="2" d="M379.28,-1079.88C359.5,-1070.39 334.73,-1058.51 313.67,-1048.42"/>
<polygon fill="grey" stroke="grey" stroke-width="2" points="315.13,-1045.24 304.6,-1044.07 312.1,-1051.55 315.13,-1045.24"/>
</g>
<!-- 5&#45;&gt;4 -->
<g id="edge11" class="edge">
<title>5&#45;&gt;4</title>
<path fill="none" stroke="grey" stroke-width="2" d="M599.62,-1151.97C564.94,-1142.01 520.99,-1129.41 484.67,-1118.99"/>
<polygon fill="grey" stroke="grey" stroke-width="2" points="485.22,-1115.5 474.64,-1116.11 483.29,-1122.23 485.22,-1115.5"/>
</g>
<!-- 6 -->
<g id="node7" class="node">
<title>6</title>
<path fill="none" stroke="#78d856" stroke-width="2" d="M1808.5,-1044C1808.5,-1044 1673.5,-1044 1673.5,-1044 1667.5,-1044 1661.5,-1038 1661.5,-1032 1661.5,-1032 1661.5,-1020 1661.5,-1020 1661.5,-1014 1667.5,-1008 1673.5,-1008 1673.5,-1008 1808.5,-1008 1808.5,-1008 1814.5,-1008 1820.5,-1014 1820.5,-1020 1820.5,-1020 1820.5,-1032 1820.5,-1032 1820.5,-1038 1814.5,-1044 1808.5,-1044"/>
<text text-anchor="middle" x="1741" y="-1023.5" font-family="sans" font-size="10.00">alignment_bwa_mem_merge</text>
</g>
<!-- 6&#45;&gt;2 -->
<g id="edge9" class="edge">
<title>6&#45;&gt;2</title>
<path fill="none" stroke="grey" stroke-width="2" d="M1661.29,-1017.77C1513.29,-1004.35 1197.63,-975.73 1049.23,-962.27"/>
<polygon fill="grey" stroke="grey" stroke-width="2" points="1049.55,-958.79 1039.27,-961.37 1048.92,-965.76 1049.55,-958.79"/>
</g>
<!-- 7 -->
<g id="node8" class="node">
<title>7</title>
<path fill="none" stroke="#56c9d8" stroke-width="2" d="M1799,-1116C1799,-1116 1701,-1116 1701,-1116 1695,-1116 1689,-1110 1689,-1104 1689,-1104 1689,-1092 1689,-1092 1689,-1086 1695,-1080 1701,-1080 1701,-1080 1799,-1080 1799,-1080 1805,-1080 1811,-1086 1811,-1092 1811,-1092 1811,-1104 1811,-1104 1811,-1110 1805,-1116 1799,-1116"/>
<text text-anchor="middle" x="1750" y="-1095.5" font-family="sans" font-size="10.00">alignment_bwa_mem</text>
</g>
<!-- 7&#45;&gt;6 -->
<g id="edge14" class="edge">
<title>7&#45;&gt;6</title>
<path fill="none" stroke="grey" stroke-width="2" d="M1747.78,-1079.7C1746.78,-1071.98 1745.59,-1062.71 1744.49,-1054.11"/>
<polygon fill="grey" stroke="grey" stroke-width="2" points="1747.95,-1053.58 1743.2,-1044.1 1741,-1054.47 1747.95,-1053.58"/>
</g>
<!-- 8 -->
<g id="node9" class="node">
<title>8</title>
<path fill="none" stroke="#56d8c9" stroke-width="2" d="M2008.5,-1188C2008.5,-1188 1903.5,-1188 1903.5,-1188 1897.5,-1188 1891.5,-1182 1891.5,-1176 1891.5,-1176 1891.5,-1164 1891.5,-1164 1891.5,-1158 1897.5,-1152 1903.5,-1152 1903.5,-1152 2008.5,-1152 2008.5,-1152 2014.5,-1152 2020.5,-1158 2020.5,-1164 2020.5,-1164 2020.5,-1176 2020.5,-1176 2020.5,-1182 2014.5,-1188 2008.5,-1188"/>
<text text-anchor="middle" x="1956" y="-1167.5" font-family="sans" font-size="10.00">prealignment_fastp_pe</text>
</g>
<!-- 8&#45;&gt;7 -->
<g id="edge15" class="edge">
<title>8&#45;&gt;7</title>
<path fill="none" stroke="grey" stroke-width="2" d="M1905.87,-1151.97C1876.96,-1142.14 1840.43,-1129.73 1810,-1119.39"/>
<polygon fill="grey" stroke="grey" stroke-width="2" points="1810.95,-1116.01 1800.35,-1116.11 1808.7,-1122.64 1810.95,-1116.01"/>
</g>
<!-- 11 -->
<g id="node12" class="node">
<title>11</title>
<path fill="none" stroke="#d89556" stroke-width="2" d="M1486,-828C1486,-828 1440,-828 1440,-828 1434,-828 1428,-822 1428,-816 1428,-816 1428,-804 1428,-804 1428,-798 1434,-792 1440,-792 1440,-792 1486,-792 1486,-792 1492,-792 1498,-798 1498,-804 1498,-804 1498,-816 1498,-816 1498,-822 1492,-828 1486,-828"/>
<text text-anchor="middle" x="1463" y="-807.5" font-family="sans" font-size="10.00">qc_multiqc</text>
</g>
<!-- 8&#45;&gt;11 -->
<g id="edge21" class="edge">
<title>8&#45;&gt;11</title>
<path fill="none" stroke="grey" stroke-width="2" d="M1971.86,-1151.72C2016.53,-1100.99 2135.17,-950.56 2056,-864 2019.24,-823.81 1640.97,-813.87 1508.51,-811.61"/>
<polygon fill="grey" stroke="grey" stroke-width="2" points="1508.36,-808.11 1498.3,-811.45 1508.24,-815.11 1508.36,-808.11"/>
</g>
<!-- 9&#45;&gt;0 -->
<g id="edge3" class="edge">
<title>9&#45;&gt;0</title>
<path fill="none" stroke="grey" stroke-width="2" d="M794.72,-1240.27C1065.21,-1237.35 1980.05,-1224.77 2030,-1188 2118.53,-1122.84 2113,-1064.93 2113,-955 2113,-955 2113,-955 2113,-161 2113,-50.94 1238.69,-24.31 1046.19,-19.78"/>
<polygon fill="grey" stroke="grey" stroke-width="2" points="1046.09,-16.28 1036.02,-19.55 1045.93,-23.28 1046.09,-16.28"/>
</g>
<!-- 9&#45;&gt;5 -->
<g id="edge12" class="edge">
<title>9&#45;&gt;5</title>
<path fill="none" stroke="grey" stroke-width="2" d="M704.92,-1223.7C697.61,-1215.3 688.69,-1205.07 680.66,-1195.86"/>
<polygon fill="grey" stroke="grey" stroke-width="2" points="683.11,-1193.34 673.91,-1188.1 677.84,-1197.94 683.11,-1193.34"/>
</g>
<!-- 9&#45;&gt;16 -->
<g id="edge32" class="edge">
<title>9&#45;&gt;16</title>
<path fill="none" stroke="grey" stroke-width="2" d="M794.53,-1236.8C941.81,-1226.46 1256,-1193.34 1256,-1099 1256,-1099 1256,-1099 1256,-1025 1256,-875.08 1763.02,-932.04 1931.29,-900.1"/>
<polygon fill="grey" stroke="grey" stroke-width="2" points="1932.1,-903.51 1941.17,-898.03 1930.67,-896.66 1932.1,-903.51"/>
</g>
<!-- 9&#45;&gt;30 -->
<g id="edge59" class="edge">
<title>9&#45;&gt;30</title>
<path fill="none" stroke="grey" stroke-width="2" d="M645.44,-1239.69C525.93,-1236.49 297.73,-1225.5 227,-1188 173.59,-1159.68 141.96,-1091.85 127.84,-1053.89"/>
<polygon fill="grey" stroke="grey" stroke-width="2" points="130.98,-1052.27 124.32,-1044.03 124.39,-1054.62 130.98,-1052.27"/>
</g>
<!-- 9&#45;&gt;34 -->
<g id="edge66" class="edge">
<title>9&#45;&gt;34</title>
<path fill="none" stroke="grey" stroke-width="2" d="M645.49,-1231.76C614.39,-1224.46 580,-1211.39 556,-1188 519.56,-1152.49 551.87,-1117.98 518,-1080 505.59,-1066.09 488.72,-1055.46 471.95,-1047.5"/>
<polygon fill="grey" stroke="grey" stroke-width="2" points="473.24,-1044.24 462.68,-1043.35 470.38,-1050.63 473.24,-1044.24"/>
</g>
<!-- 9&#45;&gt;35 -->
<g id="edge69" class="edge">
<title>9&#45;&gt;35</title>
<path fill="none" stroke="grey" stroke-width="2" d="M645.5,-1235.17C510.34,-1222.87 233.36,-1189.16 176,-1116 166.13,-1103.41 167.96,-1093.83 176,-1080 183.59,-1066.94 195.73,-1056.84 208.76,-1049.12"/>
<polygon fill="grey" stroke="grey" stroke-width="2" points="210.78,-1052.01 217.89,-1044.16 207.43,-1045.86 210.78,-1052.01"/>
</g>
<!-- 9&#45;&gt;39 -->
<g id="edge76" class="edge">
<title>9&#45;&gt;39</title>
<path fill="none" stroke="grey" stroke-width="2" d="M738.6,-1223.76C747.53,-1214.2 757.29,-1201.53 762,-1188 767.26,-1172.89 766.41,-1167.38 762,-1152 741.19,-1079.45 730.34,-1055.88 672,-1008 567.29,-922.07 483.77,-994.79 387,-900 351.5,-865.22 337.57,-837.31 358,-792 363.18,-780.52 372.21,-770.52 381.72,-762.4"/>
<polygon fill="grey" stroke="grey" stroke-width="2" points="384.09,-764.99 389.74,-756.03 379.73,-759.51 384.09,-764.99"/>
</g>
<!-- 10 -->
<g id="node11" class="node">
<title>10</title>
<path fill="none" stroke="#56d0d8" stroke-width="2" d="M1311,-612C1311,-612 1253,-612 1253,-612 1247,-612 1241,-606 1241,-600 1241,-600 1241,-588 1241,-588 1241,-582 1247,-576 1253,-576 1253,-576 1311,-576 1311,-576 1317,-576 1323,-582 1323,-588 1323,-588 1323,-600 1323,-600 1323,-606 1317,-612 1311,-612"/>
<text text-anchor="middle" x="1282" y="-591.5" font-family="sans" font-size="10.00">copy_multiqc</text>
</g>
<!-- 10&#45;&gt;0 -->
<g id="edge4" class="edge">
<title>10&#45;&gt;0</title>
<path fill="none" stroke="grey" stroke-width="2" d="M1276.54,-575.71C1268.65,-549.18 1255,-496.67 1255,-451 1255,-451 1255,-451 1255,-161 1255,-65.78 1115.05,-33.42 1046.27,-23.26"/>
<polygon fill="grey" stroke="grey" stroke-width="2" points="1046.65,-19.78 1036.27,-21.87 1045.69,-26.71 1046.65,-19.78"/>
</g>
<!-- 11&#45;&gt;10 -->
<g id="edge19" class="edge">
<title>11&#45;&gt;10</title>
<path fill="none" stroke="grey" stroke-width="2" d="M1448.49,-791.85C1416.59,-754.13 1340.21,-663.83 1303.04,-619.88"/>
<polygon fill="grey" stroke="grey" stroke-width="2" points="1305.71,-617.61 1296.58,-612.23 1300.36,-622.13 1305.71,-617.61"/>
</g>
<!-- 12&#45;&gt;11 -->
<g id="edge27" class="edge">
<title>12&#45;&gt;11</title>
<path fill="none" stroke="grey" stroke-width="2" d="M1741.45,-863.97C1667.59,-849.92 1565.88,-830.57 1508.04,-819.57"/>
<polygon fill="grey" stroke="grey" stroke-width="2" points="1508.59,-816.11 1498.11,-817.68 1507.28,-822.99 1508.59,-816.11"/>
</g>
<!-- 13 -->
<g id="node14" class="node">
<title>13</title>
<path fill="none" stroke="#566bd8" stroke-width="2" d="M1139.5,-900C1139.5,-900 1100.5,-900 1100.5,-900 1094.5,-900 1088.5,-894 1088.5,-888 1088.5,-888 1088.5,-876 1088.5,-876 1088.5,-870 1094.5,-864 1100.5,-864 1100.5,-864 1139.5,-864 1139.5,-864 1145.5,-864 1151.5,-870 1151.5,-876 1151.5,-876 1151.5,-888 1151.5,-888 1151.5,-894 1145.5,-900 1139.5,-900"/>
<text text-anchor="middle" x="1120" y="-879.5" font-family="sans" font-size="10.00">qc_fastqc</text>
</g>
<!-- 13&#45;&gt;11 -->
<g id="edge25" class="edge">
<title>13&#45;&gt;11</title>
<path fill="none" stroke="grey" stroke-width="2" d="M1151.54,-867.12C1154.7,-865.97 1157.89,-864.9 1161,-864 1249.95,-838.09 1357.55,-822.92 1417.32,-815.85"/>
<polygon fill="grey" stroke="grey" stroke-width="2" points="1418.02,-819.29 1427.55,-814.67 1417.22,-812.34 1418.02,-819.29"/>
</g>
<!-- 14&#45;&gt;11 -->
<g id="edge20" class="edge">
<title>14&#45;&gt;11</title>
<path fill="none" stroke="grey" stroke-width="2" d="M850.05,-865.13C853.06,-864.74 856.05,-864.36 859,-864 1067.15,-838.66 1317.08,-820.67 1417.73,-813.93"/>
<polygon fill="grey" stroke="grey" stroke-width="2" points="1418.11,-817.41 1427.85,-813.25 1417.64,-810.43 1418.11,-817.41"/>
</g>
<!-- 15&#45;&gt;11 -->
<g id="edge23" class="edge">
<title>15&#45;&gt;11</title>
<path fill="none" stroke="grey" stroke-width="2" d="M1070.29,-865.28C1073.22,-864.85 1076.13,-864.42 1079,-864 1201.34,-846.11 1345.85,-826.6 1417.7,-817.01"/>
<polygon fill="grey" stroke="grey" stroke-width="2" points="1418.32,-820.46 1427.77,-815.67 1417.39,-813.52 1418.32,-820.46"/>
</g>
<!-- 16&#45;&gt;11 -->
<g id="edge24" class="edge">
<title>16&#45;&gt;11</title>
<path fill="none" stroke="grey" stroke-width="2" d="M1941.22,-865.74C1938.45,-865.11 1935.7,-864.52 1933,-864 1778.63,-833.98 1592.19,-819.22 1508.06,-813.68"/>
<polygon fill="grey" stroke="grey" stroke-width="2" points="1508.28,-810.19 1498.08,-813.04 1507.83,-817.17 1508.28,-810.19"/>
</g>
<!-- 17&#45;&gt;11 -->
<g id="edge28" class="edge">
<title>17&#45;&gt;11</title>
<path fill="none" stroke="grey" stroke-width="2" d="M1335.34,-863.88C1360.47,-853.47 1392.56,-840.18 1418.28,-829.52"/>
<polygon fill="grey" stroke="grey" stroke-width="2" points="1419.9,-832.64 1427.8,-825.58 1417.22,-826.17 1419.9,-832.64"/>
</g>
<!-- 18&#45;&gt;11 -->
<g id="edge26" class="edge">
<title>18&#45;&gt;11</title>
<path fill="none" stroke="grey" stroke-width="2" d="M1483.33,-863.7C1480.29,-855.81 1476.62,-846.3 1473.24,-837.55"/>
<polygon fill="grey" stroke="grey" stroke-width="2" points="1476.46,-836.17 1469.6,-828.1 1469.93,-838.69 1476.46,-836.17"/>
</g>
<!-- 19&#45;&gt;11 -->
<g id="edge22" class="edge">
<title>19&#45;&gt;11</title>
<path fill="none" stroke="grey" stroke-width="2" d="M1597.46,-863.88C1570.11,-853.12 1534.94,-839.29 1507.43,-828.47"/>
<polygon fill="grey" stroke="grey" stroke-width="2" points="1508.63,-825.18 1498.05,-824.78 1506.07,-831.7 1508.63,-825.18"/>
</g>
<!-- 20 -->
<g id="node21" class="node">
<title>20</title>
<path fill="none" stroke="#bed856" stroke-width="2" d="M718,-180C718,-180 586,-180 586,-180 580,-180 574,-174 574,-168 574,-168 574,-156 574,-156 574,-150 580,-144 586,-144 586,-144 718,-144 718,-144 724,-144 730,-150 730,-156 730,-156 730,-168 730,-168 730,-174 724,-180 718,-180"/>
<text text-anchor="middle" x="652" y="-159.5" font-family="sans" font-size="10.00">copy_snv_ensemble_vcf_file</text>
</g>
<!-- 20&#45;&gt;0 -->
<g id="edge5" class="edge">
<title>20&#45;&gt;0</title>
<path fill="none" stroke="grey" stroke-width="2" d="M730.23,-147.22C770.79,-138.63 820.59,-125.77 863,-108 904.93,-90.43 948.95,-62.03 977.55,-42.04"/>
<polygon fill="grey" stroke="grey" stroke-width="2" points="979.76,-44.76 985.91,-36.13 975.72,-39.05 979.76,-44.76"/>
</g>
<!-- 21 -->
<g id="node22" class="node">
<title>21</title>
<path fill="none" stroke="#97d856" stroke-width="2" d="M737,-252C737,-252 527,-252 527,-252 521,-252 515,-246 515,-240 515,-240 515,-228 515,-228 515,-222 521,-216 527,-216 527,-216 737,-216 737,-216 743,-216 749,-222 749,-228 749,-228 749,-240 749,-240 749,-246 743,-252 737,-252"/>
<text text-anchor="middle" x="632" y="-231.5" font-family="sans" font-size="10.00">snv_indels_bcbio_variation_recall_ensemble</text>
</g>
<!-- 21&#45;&gt;20 -->
<g id="edge37" class="edge">
<title>21&#45;&gt;20</title>
<path fill="none" stroke="grey" stroke-width="2" d="M636.94,-215.7C639.17,-207.9 641.85,-198.51 644.33,-189.83"/>
<polygon fill="grey" stroke="grey" stroke-width="2" points="647.73,-190.68 647.11,-180.1 641,-188.76 647.73,-190.68"/>
</g>
<!-- 22 -->
<g id="node23" class="node">
<title>22</title>
<path fill="none" stroke="#56d86b" stroke-width="2" d="M480,-396C480,-396 368,-396 368,-396 362,-396 356,-390 356,-384 356,-384 356,-372 356,-372 356,-366 362,-360 368,-360 368,-360 480,-360 480,-360 486,-360 492,-366 492,-372 492,-372 492,-384 492,-384 492,-390 486,-396 480,-396"/>
<text text-anchor="middle" x="424" y="-375.5" font-family="sans" font-size="10.00">snv_indels_bcftools_sort</text>
</g>
<!-- 22&#45;&gt;21 -->
<g id="edge39" class="edge">
<title>22&#45;&gt;21</title>
<path fill="none" stroke="grey" stroke-width="2" d="M449.09,-359.87C486.41,-334.39 556.63,-286.45 598.37,-257.96"/>
<polygon fill="grey" stroke="grey" stroke-width="2" points="600.54,-260.72 606.82,-252.19 596.59,-254.94 600.54,-260.72"/>
</g>
<!-- 32 -->
<g id="node33" class="node">
<title>32</title>
<path fill="none" stroke="#80d856" stroke-width="2" d="M442,-324C442,-324 368,-324 368,-324 362,-324 356,-318 356,-312 356,-312 356,-300 356,-300 356,-294 362,-288 368,-288 368,-288 442,-288 442,-288 448,-288 454,-294 454,-300 454,-300 454,-312 454,-312 454,-318 448,-324 442,-324"/>
<text text-anchor="middle" x="405" y="-303.5" font-family="sans" font-size="10.00">snv_indels_tabix</text>
</g>
<!-- 22&#45;&gt;32 -->
<g id="edge62" class="edge">
<title>22&#45;&gt;32</title>
<path fill="none" stroke="grey" stroke-width="2" d="M413.39,-359.7C410.5,-351.98 407.76,-342.71 405.76,-334.11"/>
<polygon fill="grey" stroke="grey" stroke-width="2" points="409.15,-333.22 403.75,-324.1 402.29,-334.6 409.15,-333.22"/>
</g>
<!-- 23 -->
<g id="node24" class="node">
<title>23</title>
<path fill="none" stroke="#56d892" stroke-width="2" d="M447.5,-468C447.5,-468 334.5,-468 334.5,-468 328.5,-468 322.5,-462 322.5,-456 322.5,-456 322.5,-444 322.5,-444 322.5,-438 328.5,-432 334.5,-432 334.5,-432 447.5,-432 447.5,-432 453.5,-432 459.5,-438 459.5,-444 459.5,-444 459.5,-456 459.5,-456 459.5,-462 453.5,-468 447.5,-468"/>
<text text-anchor="middle" x="391" y="-447.5" font-family="sans" font-size="10.00">snv_indels_vt_normalize</text>
</g>
<!-- 23&#45;&gt;22 -->
<g id="edge40" class="edge">
<title>23&#45;&gt;22</title>
<path fill="none" stroke="grey" stroke-width="2" d="M399.16,-431.7C402.91,-423.73 407.45,-414.1 411.62,-405.26"/>
<polygon fill="grey" stroke="grey" stroke-width="2" points="414.84,-406.64 415.94,-396.1 408.51,-403.66 414.84,-406.64"/>
</g>
<!-- 23&#45;&gt;32 -->
<g id="edge61" class="edge">
<title>23&#45;&gt;32</title>
<path fill="none" stroke="grey" stroke-width="2" d="M371.53,-431.92C362.18,-422.4 351.95,-409.72 347,-396 341.57,-380.95 340.55,-374.64 347,-360 351.99,-348.69 360.71,-338.74 369.9,-330.62"/>
<polygon fill="grey" stroke="grey" stroke-width="2" points="372.17,-333.28 377.66,-324.23 367.72,-327.88 372.17,-333.28"/>
</g>
<!-- 24 -->
<g id="node25" class="node">
<title>24</title>
<path fill="none" stroke="#56d0d8" stroke-width="2" d="M451.5,-540C451.5,-540 330.5,-540 330.5,-540 324.5,-540 318.5,-534 318.5,-528 318.5,-528 318.5,-516 318.5,-516 318.5,-510 324.5,-504 330.5,-504 330.5,-504 451.5,-504 451.5,-504 457.5,-504 463.5,-510 463.5,-516 463.5,-516 463.5,-528 463.5,-528 463.5,-534 457.5,-540 451.5,-540"/>
<text text-anchor="middle" x="391" y="-519.5" font-family="sans" font-size="10.00">snv_indels_vt_decompose</text>
</g>
<!-- 24&#45;&gt;23 -->
<g id="edge42" class="edge">
<title>24&#45;&gt;23</title>
<path fill="none" stroke="grey" stroke-width="2" d="M391,-503.7C391,-495.98 391,-486.71 391,-478.11"/>
<polygon fill="grey" stroke="grey" stroke-width="2" points="394.5,-478.1 391,-468.1 387.5,-478.1 394.5,-478.1"/>
</g>
<!-- 25 -->
<g id="node26" class="node">
<title>25</title>
<path fill="none" stroke="#56d88a" stroke-width="2" d="M334,-612C334,-612 258,-612 258,-612 252,-612 246,-606 246,-600 246,-600 246,-588 246,-588 246,-582 252,-576 258,-576 258,-576 334,-576 334,-576 340,-576 346,-582 346,-588 346,-588 346,-600 346,-600 346,-606 340,-612 334,-612"/>
<text text-anchor="middle" x="296" y="-591.5" font-family="sans" font-size="10.00">snv_indels_bgzip</text>
</g>
<!-- 25&#45;&gt;24 -->
<g id="edge43" class="edge">
<title>25&#45;&gt;24</title>
<path fill="none" stroke="grey" stroke-width="2" d="M319.48,-575.7C331.56,-566.8 346.45,-555.82 359.52,-546.2"/>
<polygon fill="grey" stroke="grey" stroke-width="2" points="361.81,-548.85 367.79,-540.1 357.66,-543.22 361.81,-548.85"/>
</g>
<!-- 26 -->
<g id="node27" class="node">
<title>26</title>
<path fill="none" stroke="#d86656" stroke-width="2" d="M162.5,-108C162.5,-108 85.5,-108 85.5,-108 79.5,-108 73.5,-102 73.5,-96 73.5,-96 73.5,-84 73.5,-84 73.5,-78 79.5,-72 85.5,-72 85.5,-72 162.5,-72 162.5,-72 168.5,-72 174.5,-78 174.5,-84 174.5,-84 174.5,-96 174.5,-96 174.5,-102 168.5,-108 162.5,-108"/>
<text text-anchor="middle" x="124" y="-87.5" font-family="sans" font-size="10.00">snv_indels_fix_af</text>
</g>
<!-- 25&#45;&gt;26 -->
<g id="edge49" class="edge">
<title>25&#45;&gt;26</title>
<path fill="none" stroke="grey" stroke-width="2" d="M265.97,-575.87C254.04,-566.34 241.38,-553.66 233,-540 162.79,-425.59 173.4,-382.51 142,-252 130.85,-205.66 122.7,-150.72 120.97,-118.48"/>
<polygon fill="grey" stroke="grey" stroke-width="2" points="124.45,-117.96 120.63,-108.08 117.46,-118.19 124.45,-117.96"/>
</g>
<!-- 28 -->
<g id="node29" class="node">
<title>28</title>
<path fill="none" stroke="#5692d8" stroke-width="2" d="M484.5,-252C484.5,-252 339.5,-252 339.5,-252 333.5,-252 327.5,-246 327.5,-240 327.5,-240 327.5,-228 327.5,-228 327.5,-222 333.5,-216 339.5,-216 339.5,-216 484.5,-216 484.5,-216 490.5,-216 496.5,-222 496.5,-228 496.5,-228 496.5,-240 496.5,-240 496.5,-246 490.5,-252 484.5,-252"/>
<text text-anchor="middle" x="412" y="-231.5" font-family="sans" font-size="10.00">snv_indels_gatk_mutect2_filter</text>
</g>
<!-- 25&#45;&gt;28 -->
<g id="edge53" class="edge">
<title>25&#45;&gt;28</title>
<path fill="none" stroke="grey" stroke-width="2" d="M346.35,-588.25C384.45,-582.37 436.15,-569.25 472,-540 506.82,-511.59 520,-495.94 520,-451 520,-451 520,-451 520,-377 520,-327.1 477.23,-283.77 445.52,-258.5"/>
<polygon fill="grey" stroke="grey" stroke-width="2" points="447.37,-255.51 437.32,-252.17 443.09,-261.05 447.37,-255.51"/>
</g>
<!-- 29 -->
<g id="node30" class="node">
<title>29</title>
<path fill="none" stroke="#56d8d8" stroke-width="2" d="M297.5,-252C297.5,-252 172.5,-252 172.5,-252 166.5,-252 160.5,-246 160.5,-240 160.5,-240 160.5,-228 160.5,-228 160.5,-222 166.5,-216 172.5,-216 172.5,-216 297.5,-216 297.5,-216 303.5,-216 309.5,-222 309.5,-228 309.5,-228 309.5,-240 309.5,-240 309.5,-246 303.5,-252 297.5,-252"/>
<text text-anchor="middle" x="235" y="-231.5" font-family="sans" font-size="10.00">snv_indels_bcftools_concat</text>
</g>
<!-- 25&#45;&gt;29 -->
<g id="edge57" class="edge">
<title>25&#45;&gt;29</title>
<path fill="none" stroke="grey" stroke-width="2" d="M277.19,-575.66C256.16,-549.88 226,-499.3 226,-451 226,-451 226,-451 226,-377 226,-337 226,-290.65 228.29,-262.08"/>
<polygon fill="grey" stroke="grey" stroke-width="2" points="231.78,-262.35 229.29,-252.05 224.82,-261.65 231.78,-262.35"/>
</g>
<!-- 25&#45;&gt;32 -->
<g id="edge63" class="edge">
<title>25&#45;&gt;32</title>
<path fill="none" stroke="grey" stroke-width="2" d="M294.52,-575.91C291.86,-534.64 290.46,-427.94 339,-360 347.1,-348.66 358.26,-338.45 369.09,-330.09"/>
<polygon fill="grey" stroke="grey" stroke-width="2" points="371.29,-332.82 377.26,-324.07 367.13,-327.18 371.29,-332.82"/>
</g>
<!-- 36 -->
<g id="node37" class="node">
<title>36</title>
<path fill="none" stroke="#bed856" stroke-width="2" d="M842.5,-108C842.5,-108 711.5,-108 711.5,-108 705.5,-108 699.5,-102 699.5,-96 699.5,-96 699.5,-84 699.5,-84 699.5,-78 705.5,-72 711.5,-72 711.5,-72 842.5,-72 842.5,-72 848.5,-72 854.5,-78 854.5,-84 854.5,-84 854.5,-96 854.5,-96 854.5,-102 848.5,-108 842.5,-108"/>
<text text-anchor="middle" x="777" y="-87.5" font-family="sans" font-size="10.00">copy_caller_specific_vcf_file</text>
</g>
<!-- 25&#45;&gt;36 -->
<g id="edge71" class="edge">
<title>25&#45;&gt;36</title>
<path fill="none" stroke="grey" stroke-width="2" d="M346.11,-588.92C469.31,-577.53 777,-540.14 777,-451 777,-451 777,-451 777,-233 777,-193 777,-146.65 777,-118.08"/>
<polygon fill="grey" stroke="grey" stroke-width="2" points="780.5,-118.05 777,-108.05 773.5,-118.05 780.5,-118.05"/>
</g>
<!-- 37 -->
<g id="node38" class="node">
<title>37</title>
<path fill="none" stroke="#70d856" stroke-width="2" d="M974,-468C974,-468 882,-468 882,-468 876,-468 870,-462 870,-456 870,-456 870,-444 870,-444 870,-438 876,-432 882,-432 882,-432 974,-432 974,-432 980,-432 986,-438 986,-444 986,-444 986,-456 986,-456 986,-462 980,-468 974,-468"/>
<text text-anchor="middle" x="928" y="-447.5" font-family="sans" font-size="10.00">copy_pindel_vcf_file</text>
</g>
<!-- 25&#45;&gt;37 -->
<g id="edge73" class="edge">
<title>25&#45;&gt;37</title>
<path fill="none" stroke="grey" stroke-width="2" d="M346.23,-590.59C455.17,-584.89 709.86,-568.83 791,-540 832.48,-525.26 874.02,-495.68 900.3,-474.67"/>
<polygon fill="grey" stroke="grey" stroke-width="2" points="902.73,-477.21 908.28,-468.18 898.31,-471.78 902.73,-477.21"/>
</g>
<!-- 26&#45;&gt;25 -->
<g id="edge45" class="edge">
<title>26&#45;&gt;25</title>
<path fill="none" stroke="grey" stroke-width="2" d="M131.5,-108.08C138.82,-137.65 147.54,-200.2 160,-252 191.4,-382.51 180.79,-425.59 251,-540 257.42,-550.46 266.34,-560.34 274.65,-568.67"/>
<polygon fill="grey" stroke="grey" stroke-width="2" points="272.42,-571.39 282.02,-575.87 277.31,-566.38 272.42,-571.39"/>
</g>
<!-- 27 -->
<g id="node28" class="node">
<title>27</title>
<path fill="none" stroke="#d8c356" stroke-width="2" d="M485,-180C485,-180 339,-180 339,-180 333,-180 327,-174 327,-168 327,-168 327,-156 327,-156 327,-150 333,-144 339,-144 339,-144 485,-144 485,-144 491,-144 497,-150 497,-156 497,-156 497,-168 497,-168 497,-174 491,-180 485,-180"/>
<text text-anchor="middle" x="412" y="-159.5" font-family="sans" font-size="10.00">snv_indels_mutect2_pass_filter</text>
</g>
<!-- 27&#45;&gt;26 -->
<g id="edge50" class="edge">
<title>27&#45;&gt;26</title>
<path fill="none" stroke="grey" stroke-width="2" d="M341.92,-143.97C293.83,-132.28 230.65,-116.92 184.71,-105.76"/>
<polygon fill="grey" stroke="grey" stroke-width="2" points="185.44,-102.33 174.89,-103.37 183.78,-109.13 185.44,-102.33"/>
</g>
<!-- 27&#45;&gt;36 -->
<g id="edge72" class="edge">
<title>27&#45;&gt;36</title>
<path fill="none" stroke="grey" stroke-width="2" d="M497.12,-144.68C554.86,-133.6 631.01,-119 689.3,-107.82"/>
<polygon fill="grey" stroke="grey" stroke-width="2" points="690.07,-111.24 699.23,-105.92 688.75,-104.36 690.07,-111.24"/>
</g>
<!-- 28&#45;&gt;27 -->
<g id="edge51" class="edge">
<title>28&#45;&gt;27</title>
<path fill="none" stroke="grey" stroke-width="2" d="M412,-215.7C412,-207.98 412,-198.71 412,-190.11"/>
<polygon fill="grey" stroke="grey" stroke-width="2" points="415.5,-190.1 412,-180.1 408.5,-190.1 415.5,-190.1"/>
</g>
<!-- 29&#45;&gt;25 -->
<g id="edge46" class="edge">
<title>29&#45;&gt;25</title>
<path fill="none" stroke="grey" stroke-width="2" d="M240.71,-252.05C244,-278.71 244,-331.89 244,-377 244,-451 244,-451 244,-451 244,-494.2 268.13,-539.23 283.8,-566.7"/>
<polygon fill="grey" stroke="grey" stroke-width="2" points="280.92,-568.72 288.93,-575.66 286.99,-565.24 280.92,-568.72"/>
</g>
<!-- 30&#45;&gt;29 -->
<g id="edge55" class="edge">
<title>30&#45;&gt;29</title>
<path fill="none" stroke="grey" stroke-width="2" d="M90.19,-1007.85C54.98,-984.45 0,-938.97 0,-883 0,-883 0,-883 0,-737 0,-536.8 155.2,-330.46 213.35,-260.17"/>
<polygon fill="grey" stroke="grey" stroke-width="2" points="216.21,-262.2 219.94,-252.29 210.84,-257.71 216.21,-262.2"/>
</g>
<!-- 33 -->
<g id="node34" class="node">
<title>33</title>
<path fill="none" stroke="#5663d8" stroke-width="2" d="M223.5,-684C223.5,-684 40.5,-684 40.5,-684 34.5,-684 28.5,-678 28.5,-672 28.5,-672 28.5,-660 28.5,-660 28.5,-654 34.5,-648 40.5,-648 40.5,-648 223.5,-648 223.5,-648 229.5,-648 235.5,-654 235.5,-660 235.5,-660 235.5,-672 235.5,-672 235.5,-678 229.5,-684 223.5,-684"/>
<text text-anchor="middle" x="132" y="-663.5" font-family="sans" font-size="10.00">snv_indels_gatk_mutect2_merge_stats</text>
</g>
<!-- 30&#45;&gt;33 -->
<g id="edge64" class="edge">
<title>30&#45;&gt;33</title>
<path fill="none" stroke="grey" stroke-width="2" d="M120.78,-1007.97C123.4,-981.34 128,-928.21 128,-883 128,-883 128,-883 128,-809 128,-768.98 129.61,-722.64 130.78,-694.07"/>
<polygon fill="grey" stroke="grey" stroke-width="2" points="134.28,-694.18 131.21,-684.04 127.29,-693.89 134.28,-694.18"/>
</g>
<!-- 31 -->
<g id="node32" class="node">
<title>31</title>
<path fill="none" stroke="#d8bc56" stroke-width="2" d="M291,-1116C291,-1116 197,-1116 197,-1116 191,-1116 185,-1110 185,-1104 185,-1104 185,-1092 185,-1092 185,-1086 191,-1080 197,-1080 197,-1080 291,-1080 291,-1080 297,-1080 303,-1086 303,-1092 303,-1092 303,-1104 303,-1104 303,-1110 297,-1116 291,-1116"/>
<text text-anchor="middle" x="244" y="-1095.5" font-family="sans" font-size="10.00">snv_indels_bed_split</text>
</g>
<!-- 31&#45;&gt;30 -->
<g id="edge60" class="edge">
<title>31&#45;&gt;30</title>
<path fill="none" stroke="grey" stroke-width="2" d="M213.42,-1079.88C196.93,-1070.64 176.38,-1059.13 158.66,-1049.21"/>
<polygon fill="grey" stroke="grey" stroke-width="2" points="160.13,-1046.02 149.7,-1044.19 156.71,-1052.13 160.13,-1046.02"/>
</g>
<!-- 31&#45;&gt;34 -->
<g id="edge67" class="edge">
<title>31&#45;&gt;34</title>
<path fill="none" stroke="grey" stroke-width="2" d="M284.36,-1079.88C307.02,-1070.26 335.47,-1058.19 359.47,-1048.01"/>
<polygon fill="grey" stroke="grey" stroke-width="2" points="360.93,-1051.2 368.77,-1044.07 358.19,-1044.75 360.93,-1051.2"/>
</g>
<!-- 31&#45;&gt;35 -->
<g id="edge70" class="edge">
<title>31&#45;&gt;35</title>
<path fill="none" stroke="grey" stroke-width="2" d="M250.18,-1079.7C253,-1071.81 256.39,-1062.3 259.52,-1053.55"/>
<polygon fill="grey" stroke="grey" stroke-width="2" points="262.82,-1054.7 262.89,-1044.1 256.23,-1052.34 262.82,-1054.7"/>
</g>
<!-- 32&#45;&gt;21 -->
<g id="edge38" class="edge">
<title>32&#45;&gt;21</title>
<path fill="none" stroke="grey" stroke-width="2" d="M454.26,-289.81C487.27,-279.63 531.1,-266.11 566.97,-255.05"/>
<polygon fill="grey" stroke="grey" stroke-width="2" points="568.34,-258.29 576.87,-252 566.28,-251.6 568.34,-258.29"/>
</g>
<!-- 32&#45;&gt;22 -->
<g id="edge41" class="edge">
<title>32&#45;&gt;22</title>
<path fill="none" stroke="grey" stroke-width="2" d="M415.54,-324.1C418.43,-331.79 421.18,-341.05 423.18,-349.67"/>
<polygon fill="grey" stroke="grey" stroke-width="2" points="419.8,-350.59 425.22,-359.7 426.66,-349.2 419.8,-350.59"/>
</g>
<!-- 32&#45;&gt;28 -->
<g id="edge52" class="edge">
<title>32&#45;&gt;28</title>
<path fill="none" stroke="grey" stroke-width="2" d="M406.73,-287.7C407.5,-279.98 408.43,-270.71 409.29,-262.11"/>
<polygon fill="grey" stroke="grey" stroke-width="2" points="412.78,-262.4 410.29,-252.1 405.81,-261.71 412.78,-262.4"/>
</g>
<!-- 32&#45;&gt;29 -->
<g id="edge56" class="edge">
<title>32&#45;&gt;29</title>
<path fill="none" stroke="grey" stroke-width="2" d="M363.41,-287.88C339.97,-278.22 310.5,-266.09 285.7,-255.88"/>
<polygon fill="grey" stroke="grey" stroke-width="2" points="287.03,-252.64 276.45,-252.07 284.37,-259.11 287.03,-252.64"/>
</g>
<!-- 33&#45;&gt;28 -->
<g id="edge54" class="edge">
<title>33&#45;&gt;28</title>
<path fill="none" stroke="grey" stroke-width="2" d="M132,-647.95C132,-621.29 132,-568.11 132,-523 132,-523 132,-523 132,-449 132,-344.09 257.61,-283.72 340.56,-255.28"/>
<polygon fill="grey" stroke="grey" stroke-width="2" points="341.83,-258.54 350.21,-252.05 339.61,-251.91 341.83,-258.54"/>
</g>
<!-- 34&#45;&gt;25 -->
<g id="edge48" class="edge">
<title>34&#45;&gt;25</title>
<path fill="none" stroke="grey" stroke-width="2" d="M384.18,-1007.98C352.57,-984.07 302,-937.33 302,-883 302,-883 302,-883 302,-737 302,-696.96 299.59,-650.63 297.82,-622.07"/>
<polygon fill="grey" stroke="grey" stroke-width="2" points="301.31,-621.8 297.19,-612.04 294.33,-622.24 301.31,-621.8"/>
</g>
<!-- 35&#45;&gt;25 -->
<g id="edge44" class="edge">
<title>35&#45;&gt;25</title>
<path fill="none" stroke="grey" stroke-width="2" d="M268.01,-1007.96C266.56,-981.31 264,-928.14 264,-883 264,-883 264,-883 264,-737 264,-696.04 276.83,-650.02 286.24,-621.77"/>
<polygon fill="grey" stroke="grey" stroke-width="2" points="289.59,-622.8 289.52,-612.21 282.97,-620.53 289.59,-622.8"/>
</g>
<!-- 36&#45;&gt;0 -->
<g id="edge2" class="edge">
<title>36&#45;&gt;0</title>
<path fill="none" stroke="grey" stroke-width="2" d="M833.46,-71.97C876.49,-58.98 934.52,-41.47 971.86,-30.21"/>
<polygon fill="grey" stroke="grey" stroke-width="2" points="973.25,-33.44 981.81,-27.2 971.22,-26.74 973.25,-33.44"/>
</g>
<!-- 37&#45;&gt;0 -->
<g id="edge1" class="edge">
<title>37&#45;&gt;0</title>
<path fill="none" stroke="grey" stroke-width="2" d="M935.69,-431.91C946.79,-405.62 966,-353.45 966,-307 966,-307 966,-307 966,-161 966,-119.29 983.2,-73.54 995.84,-45.54"/>
<polygon fill="grey" stroke="grey" stroke-width="2" points="999.05,-46.96 1000.09,-36.42 992.7,-44.01 999.05,-46.96"/>
</g>
<!-- 38 -->
<g id="node39" class="node">
<title>38</title>
<path fill="none" stroke="#569ad8" stroke-width="2" d="M442.5,-684C442.5,-684 359.5,-684 359.5,-684 353.5,-684 347.5,-678 347.5,-672 347.5,-672 347.5,-660 347.5,-660 347.5,-654 353.5,-648 359.5,-648 359.5,-648 442.5,-648 442.5,-648 448.5,-648 454.5,-654 454.5,-660 454.5,-660 454.5,-672 454.5,-672 454.5,-678 448.5,-684 442.5,-684"/>
<text text-anchor="middle" x="401" y="-663.5" font-family="sans" font-size="10.00">cnv_sv_pindel2vcf</text>
</g>
<!-- 38&#45;&gt;25 -->
<g id="edge47" class="edge">
<title>38&#45;&gt;25</title>
<path fill="none" stroke="grey" stroke-width="2" d="M375.31,-647.88C361.71,-638.81 344.83,-627.55 330.14,-617.76"/>
<polygon fill="grey" stroke="grey" stroke-width="2" points="332.05,-614.82 321.78,-612.19 328.16,-620.65 332.05,-614.82"/>
</g>
<!-- 39&#45;&gt;38 -->
<g id="edge74" class="edge">
<title>39&#45;&gt;38</title>
<path fill="none" stroke="grey" stroke-width="2" d="M413.8,-719.7C411.9,-711.9 409.62,-702.51 407.52,-693.83"/>
<polygon fill="grey" stroke="grey" stroke-width="2" points="410.92,-693 405.15,-684.1 404.11,-694.65 410.92,-693"/>
</g>
<!-- 40&#45;&gt;39 -->
<g id="edge75" class="edge">
<title>40&#45;&gt;39</title>
<path fill="none" stroke="grey" stroke-width="2" d="M443.6,-791.7C439.73,-783.73 435.05,-774.1 430.76,-765.26"/>
<polygon fill="grey" stroke="grey" stroke-width="2" points="433.83,-763.57 426.31,-756.1 427.53,-766.63 433.83,-763.57"/>
</g>
<!-- 41&#45;&gt;40 -->
<g id="edge78" class="edge">
<title>41&#45;&gt;40</title>
<path fill="none" stroke="grey" stroke-width="2" d="M488.13,-863.7C482.5,-855.47 475.65,-845.48 469.43,-836.42"/>
<polygon fill="grey" stroke="grey" stroke-width="2" points="472.27,-834.37 463.73,-828.1 466.5,-838.33 472.27,-834.37"/>
</g>
</g>
</svg>
